<?xml version="1.0" encoding="UTF-8" standalone="no"?>
<!DOCTYPE svg PUBLIC "-//W3C//DTD SVG 1.1//EN" "http://www.w3.org/Graphics/SVG/1.1/DTD/svg11.dtd">
<svg width="100%" height="100%" viewBox="0 0 130 130" version="1.1" xmlns="http://www.w3.org/2000/svg" xmlns:xlink="http://www.w3.org/1999/xlink" xml:space="preserve" xmlns:serif="http://www.serif.com/" style="fill-rule:evenodd;clip-rule:evenodd;stroke-linejoin:round;stroke-miterlimit:2;">
    <g transform="matrix(1,0,0,1,-397,0)">
        <path d="M425.5,16.5C434.4,10 444.9,6 455.9,5L455.9,23.1C448.8,24 442.1,26.7 436.3,31C429.1,36.4 423.7,43.9 421.1,52.5C418.5,61.1 418.7,70.3 421.7,78.8C424.7,87.3 430.4,94.6 437.9,99.6C445.4,104.6 454.3,107.1 463.3,106.7C472.3,106.3 480.9,103 487.9,97.3C494.9,91.6 499.8,83.8 502,75.1C503.5,69 503.7,62.7 502.5,56.6L517.7,44.4L517.7,44.3C521.8,55.6 522.4,67.9 519.5,79.6C516.3,92.1 509.3,103.2 499.3,111.3C489.3,119.4 477,124.2 464.2,124.8C451.4,125.4 438.6,121.9 428,114.7C417.3,107.5 409.2,97.1 404.9,85C400.6,72.9 400.3,59.7 404,47.4C407.6,35 415.2,24.2 425.5,16.5Z" style="fill:rgb(252,202,0);fill-rule:nonzero;"/>
    </g>
    <g transform="matrix(1,0,0,1,-397,0)">
        <path d="M506.2,25L506.3,25.2L496.1,41.3C492.4,35.8 487.5,31.3 481.7,28L481.7,64.7C481.7,76 472.6,85.1 461.3,85.1C450,85.1 440.9,76 440.9,64.7C440.9,53.4 450,44.3 461.3,44.3C465.5,44.3 469.4,45.6 472.7,47.8L472.7,5.8C485.9,8.4 497.6,15.3 506.2,25Z" style="fill:rgb(252,63,29);fill-rule:nonzero;"/>
    </g>
</svg>
